<svg version="1.2" baseProfile="tiny-ps" xmlns="http://www.w3.org/2000/svg" viewBox="0 0 1578 1578" width="1578" height="1578">
	<title>ft-introduction-img-06-pc (1)-svg</title>
	<style>
		tspan { white-space:pre }
		.shp0 { fill: #e1251b } 
		.shp1 { fill: #002f87 } 
	</style>
	<g id="#e1251bff">
		<path id="Layer" class="shp0" d="M435.31 83.27C590.1 4.71 771.52 -18.62 941.52 15.27C1100.63 46.38 1248.89 128.85 1359.97 246.8C1483.09 376.22 1560.01 548.67 1573 726.9C1587.88 909.85 1535.66 1097.45 1428.15 1246.17C1514.77 1112.04 1556.71 946.8 1533.73 787.98C1508.3 609.01 1393.92 446.1 1235.1 360.22C1197.29 339.21 1156.88 323.15 1115.56 310.66C1034.33 287.79 943.79 300.1 871.87 344.27C826.41 372.93 794.96 422.77 789.28 476.29C783.38 557.41 796.72 639.88 780.54 720.26C761.07 812.67 701.59 895.49 620.7 944.02C533.06 997.72 421.01 1008.96 324.4 974.05C252.03 948.73 189.7 897.59 148.15 833.45C114.83 783.27 102.4 722.7 94.28 663.95C72.6 496.73 136 322.41 257.42 205.99C310.32 156.72 371 116.19 435.31 83.27Z" />
	</g>
	<g id="#002f87ff">
		<path id="Layer" class="shp1" d="M3.58 714.75C16.97 577.9 65.45 443.6 146.79 332.34C76.69 438.83 38.77 565.36 35.25 692.56C33.09 827.54 78.79 962.69 163.59 1067.82C234.09 1156.54 330.93 1224.03 438.6 1259.33C522.56 1290.21 619.73 1281.25 697.1 1236.57C745.75 1208.93 779.97 1157.5 786.28 1101.88C793.26 1014.69 776.23 925.29 799.1 839.69C823.23 748.24 886.97 668.44 970.36 624.05C1054.76 578.35 1158.52 570.18 1249.06 602.14C1336.08 632.11 1409.42 698.8 1448.69 781.85C1483.21 866.65 1489.68 960.37 1480.37 1050.73C1461.47 1192.41 1384.5 1326.14 1269.67 1411.69C1156.08 1500.29 1017.7 1556.94 874.26 1571.93C772.37 1580.89 668.27 1575.28 569.84 1545.99C386.72 1493.93 224.89 1372.24 123.06 1211.48C29.29 1065.38 -13 887.48 3.58 714.75Z" />
	</g>
</svg>