<svg width="24" height="24" viewBox="0 0 24 24" fill="none" xmlns="http://www.w3.org/2000/svg">
<path d="M16.4444 20C15.5015 20 14.5971 19.6254 13.9303 18.9586C13.2635 18.2918 12.8889 17.3874 12.8889 16.4444V5.77778C12.8889 5.30628 13.0762 4.8541 13.4096 4.5207C13.743 4.1873 14.1952 4 14.6667 4H18.2222C18.6937 4 19.1459 4.1873 19.4793 4.5207C19.8127 4.8541 20 5.30628 20 5.77778V16.4444C20 17.3874 19.6254 18.2918 18.9586 18.9586C18.2918 19.6254 17.3874 20 16.4444 20ZM16.4444 20H5.77778C5.30628 20 4.8541 19.8127 4.5207 19.4793C4.1873 19.1459 4 18.6937 4 18.2222V14.6667C4 14.1952 4.1873 13.743 4.5207 13.4096C4.8541 13.0762 5.30628 12.8889 5.77778 12.8889H7.82222M12.8889 7.86667L11.1111 6.08889C10.7777 5.75561 10.3256 5.56838 9.85422 5.56838C9.38282 5.56838 8.93072 5.75561 8.59733 6.08889L6.08356 8.60267C5.75027 8.93605 5.56305 9.38815 5.56305 9.85956C5.56305 10.331 5.75027 10.7831 6.08356 11.1164L14.0836 19.1164M16.4444 16.4444V16.4533" stroke="#C7C9D9" stroke-width="1.5" stroke-linecap="round" stroke-linejoin="round"/>
</svg>
