<svg width="24" height="24" viewBox="0 0 24 24" fill="none" xmlns="http://www.w3.org/2000/svg">
<path d="M3 14.5357V11.7073C3 10.3333 4.06332 9.21951 5.375 9.21951M3 14.5357C3 15.9097 4.06332 17.0235 5.375 17.0235H19.625C20.9367 17.0235 22 15.9097 22 14.5357M3 14.5357V18.3415C3 19.2574 3.70888 20 4.58333 20H6.16667C7.04112 20 7.75 19.2574 7.75 18.3415V17.0235M22 14.5357V11.7073C22 10.3333 20.9367 9.21951 19.625 9.21951H5.375M22 14.5357V18.3415C22 19.2574 21.2911 20 20.4167 20H18.8333C17.9589 20 17.25 19.2574 17.25 18.3415V17.0235M5.375 9.21951L6.6449 4.23119C6.82973 3.50516 7.45744 3 8.17477 3H16.9005C17.582 3 18.187 3.45681 18.4025 4.13406L20.0208 9.21951M5.77083 12.9512H8.54167M16.4583 12.9512H19.2292" stroke="white" stroke-width="1.5" stroke-linecap="round" stroke-linejoin="round"/>
</svg>
