<svg width="24" height="24" viewBox="0 0 24 24" fill="none" xmlns="http://www.w3.org/2000/svg">
<path d="M7.80037 16.2498V11.3171M7.80037 16.2498H6.15614M7.80037 16.2498H9.4446M7.80037 11.3171V6.38443M7.80037 11.3171H15.1994M7.80037 6.38443H6.15614M7.80037 6.38443H9.4446M15.1994 11.3171V16.2498M15.1994 11.3171V6.38443M15.1994 16.2498H13.5552M15.1994 16.2498H16.8436M15.1994 6.38443H13.5552M15.1994 6.38443H16.8436M4.375 21H18.625C19.9367 21 21 19.9367 21 18.625V4.375C21 3.06332 19.9367 2 18.625 2H4.375C3.06332 2 2 3.06332 2 4.375V18.625C2 19.9367 3.06332 21 4.375 21Z" stroke="white" stroke-width="1.5" stroke-linecap="round" stroke-linejoin="round"/>
</svg>
