<svg width="36" height="36" viewBox="0 0 36 36" fill="none" xmlns="http://www.w3.org/2000/svg">
<circle cx="18" cy="18" r="18" fill="#6B7588"/>
<path d="M18.0007 10C15.8281 10 15.5554 10.0095 14.702 10.0483C13.8504 10.0873 13.269 10.2222 12.7604 10.42C12.2342 10.6243 11.7879 10.8977 11.3432 11.3425C10.8982 11.7872 10.6248 12.2335 10.4198 12.7595C10.2215 13.2683 10.0865 13.8498 10.0482 14.7012C10.01 15.5545 10 15.8273 10 18C10 20.1727 10.0097 20.4445 10.0483 21.2978C10.0875 22.1495 10.2223 22.7308 10.42 23.2395C10.6245 23.7657 10.8978 24.212 11.3427 24.6567C11.7872 25.1017 12.2335 25.3757 12.7594 25.58C13.2684 25.7778 13.8499 25.9127 14.7014 25.9517C15.5547 25.9905 15.8272 26 17.9998 26C20.1726 26 20.4444 25.9905 21.2978 25.9517C22.1495 25.9127 22.7315 25.7778 23.2405 25.58C23.7665 25.3757 24.2121 25.1017 24.6567 24.6567C25.1017 24.212 25.375 23.7657 25.58 23.2397C25.7767 22.7308 25.9117 22.1493 25.9517 21.298C25.99 20.4447 26 20.1727 26 18C26 15.8273 25.99 15.5547 25.9517 14.7013C25.9117 13.8497 25.7767 13.2683 25.58 12.7597C25.375 12.2335 25.1017 11.7872 24.6567 11.3425C24.2116 10.8975 23.7666 10.6242 23.24 10.42C22.73 10.2222 22.1483 10.0873 21.2966 10.0483C20.4433 10.0095 20.1716 10 17.9982 10H18.0007ZM17.2831 11.4417C17.4961 11.4413 17.7337 11.4417 18.0007 11.4417C20.1368 11.4417 20.3899 11.4493 21.2335 11.4877C22.0135 11.5233 22.4368 11.6537 22.7188 11.7632C23.0921 11.9082 23.3583 12.0815 23.6381 12.3615C23.9181 12.6415 24.0915 12.9082 24.2368 13.2815C24.3463 13.5632 24.4768 13.9865 24.5123 14.7665C24.5507 15.6098 24.559 15.8632 24.559 17.9982C24.559 20.1332 24.5507 20.3865 24.5123 21.2298C24.4767 22.0098 24.3463 22.4332 24.2368 22.7148C24.0918 23.0882 23.9181 23.354 23.6381 23.6338C23.3581 23.9138 23.0923 24.0872 22.7188 24.2322C22.4371 24.3422 22.0135 24.4722 21.2335 24.5078C20.3901 24.5462 20.1368 24.5545 18.0007 24.5545C15.8646 24.5545 15.6114 24.5462 14.768 24.5078C13.988 24.4718 13.5647 24.3415 13.2825 24.232C12.9092 24.087 12.6425 23.9137 12.3625 23.6337C12.0825 23.3537 11.9092 23.0877 11.7639 22.7142C11.6544 22.4325 11.5238 22.0092 11.4883 21.2292C11.45 20.3858 11.4423 20.1325 11.4423 17.9962C11.4423 15.8598 11.45 15.6078 11.4883 14.7645C11.524 13.9845 11.6544 13.5612 11.7639 13.2792C11.9089 12.9058 12.0825 12.6392 12.3625 12.3592C12.6425 12.0792 12.9092 11.9058 13.2825 11.7605C13.5645 11.6505 13.988 11.5205 14.768 11.4847C15.5061 11.4513 15.7921 11.4413 17.2831 11.4397V11.4417ZM22.2711 12.77C21.7411 12.77 21.3111 13.1995 21.3111 13.7297C21.3111 14.2597 21.7411 14.6897 22.2711 14.6897C22.8011 14.6897 23.2311 14.2597 23.2311 13.7297C23.2311 13.1997 22.8011 12.7697 22.2711 12.7697V12.77ZM18.0007 13.8917C15.7319 13.8917 13.8924 15.7312 13.8924 18C13.8924 20.2688 15.7319 22.1075 18.0007 22.1075C20.2696 22.1075 22.1085 20.2688 22.1085 18C22.1085 15.7312 20.2694 13.8917 18.0006 13.8917H18.0007ZM18.0007 15.3333C19.4734 15.3333 20.6674 16.5272 20.6674 18C20.6674 19.4727 19.4734 20.6667 18.0007 20.6667C16.5279 20.6667 15.3341 19.4727 15.3341 18C15.3341 16.5272 16.5279 15.3333 18.0007 15.3333Z" fill="white"/>
</svg>
