<svg width="24" height="24" viewBox="0 0 24 24" fill="none" xmlns="http://www.w3.org/2000/svg">
<path d="M5.25 18.9999C5.24995 19.4141 5.5857 19.75 5.99992 19.75C6.41413 19.75 6.74995 19.4143 6.75 19.0001L5.25 18.9999ZM6.00027 16.5622L6.75027 16.5623L6.00027 16.5622ZM12.9062 14.875C13.3205 14.875 13.6562 14.5392 13.6562 14.125C13.6562 13.7108 13.3205 13.375 12.9062 13.375V14.875ZM19 15.6875C19.4142 15.6875 19.75 15.3517 19.75 14.9375C19.75 14.5233 19.4142 14.1875 19 14.1875V15.6875ZM15.3438 14.1875C14.9295 14.1875 14.5938 14.5233 14.5938 14.9375C14.5938 15.3517 14.9295 15.6875 15.3438 15.6875V14.1875ZM16.4219 16.7655C16.4219 17.1797 16.7577 17.5155 17.1719 17.5155C17.5861 17.5155 17.9219 17.1797 17.9219 16.7655H16.4219ZM17.9219 13.1093C17.9219 12.6951 17.5861 12.3593 17.1719 12.3593C16.7577 12.3593 16.4219 12.6951 16.4219 13.1093H17.9219ZM16.523 5.34577C16.1616 5.14324 15.7046 5.27196 15.502 5.63328C15.2995 5.9946 15.4282 6.4517 15.7895 6.65423L16.523 5.34577ZM15.7895 10.2208C15.4282 10.4233 15.2995 10.8804 15.502 11.2417C15.7046 11.603 16.1616 11.7318 16.523 11.5292L15.7895 10.2208ZM13.375 8.4375C13.375 9.36948 12.6195 10.125 11.6875 10.125V11.625C13.4479 11.625 14.875 10.1979 14.875 8.4375H13.375ZM11.6875 10.125C10.7555 10.125 10 9.36948 10 8.4375H8.5C8.5 10.1979 9.92709 11.625 11.6875 11.625V10.125ZM10 8.4375C10 7.50552 10.7555 6.75 11.6875 6.75V5.25C9.92709 5.25 8.5 6.67709 8.5 8.4375H10ZM11.6875 6.75C12.6195 6.75 13.375 7.50552 13.375 8.4375H14.875C14.875 6.67709 13.4479 5.25 11.6875 5.25V6.75ZM6.75 19.0001L6.75027 16.5623L5.25027 16.5621L5.25 18.9999L6.75 19.0001ZM8.43777 13.375C6.67751 13.375 5.25047 14.8019 5.25027 16.5621L6.75027 16.5623C6.75038 15.6304 7.50587 14.875 8.43777 14.875V13.375ZM8.43777 14.875H12.9062V13.375H8.43777V14.875ZM19 14.1875H17.1719V15.6875H19V14.1875ZM17.1719 14.1875H15.3438V15.6875H17.1719V14.1875ZM17.9219 16.7655V14.9375H16.4219V16.7655H17.9219ZM17.9219 14.9375V13.1093H16.4219V14.9375H17.9219ZM15.7895 6.65423C16.6116 7.11501 17.0312 7.7843 17.0312 8.4375H18.5312C18.5312 7.09314 17.6729 5.99037 16.523 5.34577L15.7895 6.65423ZM17.0312 8.4375C17.0312 9.0907 16.6116 9.75999 15.7895 10.2208L16.523 11.5292C17.6729 10.8846 18.5312 9.78186 18.5312 8.4375H17.0312Z" fill="#C7C9D9"/>
</svg>
