<svg width="16" height="16" viewBox="0 0 16 16" fill="none" xmlns="http://www.w3.org/2000/svg">
<path d="M1.60001 1.32845C1.23182 1.32845 0.933339 1.62693 0.933339 1.99512C0.933339 2.36331 1.23182 2.66178 1.60001 2.66178V1.32845ZM3.12836 1.99512L3.77185 1.82084C3.69314 1.53024 3.42944 1.32845 3.12836 1.32845V1.99512ZM5.61195 11.1653L4.96846 11.3395C5.05531 11.6602 5.36499 11.868 5.69464 11.8268L5.61195 11.1653ZM13.2537 10.21L13.3364 10.8716C13.6196 10.8362 13.8488 10.6245 13.9066 10.3451L13.2537 10.21ZM14.4 4.66974L15.0528 4.80482C15.0935 4.60847 15.0436 4.40427 14.917 4.2488C14.7904 4.09332 14.6005 4.00308 14.4 4.00308V4.66974ZM3.85274 4.66974L3.20926 4.84402L3.85274 4.66974ZM1.60001 2.66178H3.12836V1.32845H1.60001V2.66178ZM5.69464 11.8268L13.3364 10.8716L13.171 9.54853L5.52926 10.5037L5.69464 11.8268ZM13.9066 10.3451L15.0528 4.80482L13.7472 4.53467L12.6009 10.075L13.9066 10.3451ZM2.48488 2.16939L3.20926 4.84402L4.49623 4.49547L3.77185 1.82084L2.48488 2.16939ZM3.20926 4.84402L4.96846 11.3395L6.25543 10.991L4.49623 4.49547L3.20926 4.84402ZM14.4 4.00308H3.85274V5.33641H14.4V4.00308ZM7.33334 13.6666C7.33334 13.8507 7.1841 14 7.00001 14V15.3333C7.92048 15.3333 8.66667 14.5871 8.66667 13.6666H7.33334ZM7.00001 14C6.81591 14 6.66667 13.8507 6.66667 13.6666H5.33334C5.33334 14.5871 6.07953 15.3333 7.00001 15.3333V14ZM6.66667 13.6666C6.66667 13.4825 6.81591 13.3333 7.00001 13.3333V12C6.07953 12 5.33334 12.7462 5.33334 13.6666H6.66667ZM7.00001 13.3333C7.1841 13.3333 7.33334 13.4825 7.33334 13.6666H8.66667C8.66667 12.7462 7.92048 12 7.00001 12V13.3333ZM12.6667 13.6666C12.6667 13.8507 12.5174 14 12.3333 14V15.3333C13.2538 15.3333 14 14.5871 14 13.6666H12.6667ZM12.3333 14C12.1492 14 12 13.8507 12 13.6666H10.6667C10.6667 14.5871 11.4129 15.3333 12.3333 15.3333V14ZM12 13.6666C12 13.4825 12.1492 13.3333 12.3333 13.3333V12C11.4129 12 10.6667 12.7462 10.6667 13.6666H12ZM12.3333 13.3333C12.5174 13.3333 12.6667 13.4825 12.6667 13.6666H14C14 12.7462 13.2538 12 12.3333 12V13.3333Z" fill="#00256C"/>
</svg>
