<svg width="16" height="16" viewBox="0 0 16 16" fill="none" xmlns="http://www.w3.org/2000/svg">
<path d="M9.28574 7.24342C9.40313 7.58267 9.77331 7.76252 10.1126 7.64513C10.4518 7.52774 10.6317 7.15756 10.5143 6.81831L9.28574 7.24342ZM9 6.35185L9.02856 5.70248C9.01904 5.70206 9.00952 5.70185 9 5.70185V6.35185ZM7.66667 8.38889V9.03889V8.38889ZM9 10.4259V11.0759V10.4259ZM7.66667 10.4259L7.63811 11.0753C7.64762 11.0757 7.65714 11.0759 7.66667 11.0759V10.4259ZM7.38093 9.53436C7.26354 9.19511 6.89336 9.01526 6.55411 9.13265C6.21486 9.25004 6.03501 9.62022 6.1524 9.95947L7.38093 9.53436ZM8.98333 5.33333C8.98333 4.97435 8.69232 4.68333 8.33333 4.68333C7.97435 4.68333 7.68333 4.97435 7.68333 5.33333H8.98333ZM7.68333 6.35185C7.68333 6.71084 7.97435 7.00185 8.33333 7.00185C8.69232 7.00185 8.98333 6.71084 8.98333 6.35185H7.68333ZM8.98333 10.4259C8.98333 10.0669 8.69232 9.77593 8.33333 9.77593C7.97435 9.77593 7.68333 10.0669 7.68333 10.4259H8.98333ZM7.68333 11.4444C7.68333 11.8034 7.97435 12.0944 8.33333 12.0944C8.69232 12.0944 8.98333 11.8034 8.98333 11.4444H7.68333ZM10.5143 6.81831C10.4062 6.50588 10.2081 6.23165 9.94357 6.0321L9.16061 7.06987C9.2169 7.11234 9.26115 7.17237 9.28574 7.24342L10.5143 6.81831ZM9.94357 6.0321C9.67893 5.83243 9.36029 5.71707 9.02856 5.70248L8.97144 7.00122C9.03855 7.00417 9.10447 7.02751 9.16061 7.06987L9.94357 6.0321ZM9 5.70185H7.66667V7.00185H9V5.70185ZM7.66667 5.70185C7.22517 5.70185 6.80422 5.88059 6.49574 6.19478L7.42338 7.10555C7.48997 7.03772 7.57773 7.00185 7.66667 7.00185V5.70185ZM6.49574 6.19478C6.18766 6.50857 6.01667 6.93166 6.01667 7.37037H7.31667C7.31667 7.26882 7.35638 7.17378 7.42338 7.10555L6.49574 6.19478ZM6.01667 7.37037C6.01667 7.80908 6.18766 8.23217 6.49574 8.54596L7.42338 7.63519C7.35638 7.56696 7.31667 7.47192 7.31667 7.37037H6.01667ZM6.49574 8.54596C6.80422 8.86015 7.22517 9.03889 7.66667 9.03889V7.73889C7.57773 7.73889 7.48997 7.70301 7.42338 7.63519L6.49574 8.54596ZM7.66667 9.03889H9V7.73889H7.66667V9.03889ZM9 9.03889C9.08894 9.03889 9.1767 9.07476 9.24329 9.14259L10.1709 8.23182C9.86244 7.91763 9.4415 7.73889 9 7.73889V9.03889ZM9.24329 9.14259C9.31028 9.21082 9.35 9.30586 9.35 9.40741H10.65C10.65 8.9687 10.479 8.54561 10.1709 8.23182L9.24329 9.14259ZM9.35 9.40741C9.35 9.50895 9.31028 9.60399 9.24329 9.67222L10.1709 10.583C10.479 10.2692 10.65 9.84612 10.65 9.40741H9.35ZM9.24329 9.67222C9.17669 9.74005 9.08894 9.77593 9 9.77593V11.0759C9.4415 11.0759 9.86245 10.8972 10.1709 10.583L9.24329 9.67222ZM9 9.77593H7.66667V11.0759H9V9.77593ZM7.69522 9.77655C7.62812 9.7736 7.5622 9.75026 7.50606 9.7079L6.7231 10.7457C6.98774 10.9453 7.30638 11.0607 7.63811 11.0753L7.69522 9.77655ZM7.50606 9.7079C7.44976 9.66543 7.40552 9.60541 7.38093 9.53436L6.1524 9.95947C6.26051 10.2719 6.4586 10.5461 6.7231 10.7457L7.50606 9.7079ZM7.68333 5.33333V6.35185H8.98333V5.33333H7.68333ZM7.68333 10.4259V11.4444H8.98333V10.4259H7.68333ZM13.0167 8.33333C13.0167 10.9199 10.9199 13.0167 8.33333 13.0167V14.3167C11.6378 14.3167 14.3167 11.6378 14.3167 8.33333H13.0167ZM8.33333 13.0167C5.7468 13.0167 3.65 10.9199 3.65 8.33333H2.35C2.35 11.6378 5.02883 14.3167 8.33333 14.3167V13.0167ZM3.65 8.33333C3.65 5.7468 5.7468 3.65 8.33333 3.65V2.35C5.02883 2.35 2.35 5.02883 2.35 8.33333H3.65ZM8.33333 3.65C10.9199 3.65 13.0167 5.7468 13.0167 8.33333H14.3167C14.3167 5.02883 11.6378 2.35 8.33333 2.35V3.65Z" fill="#101010"/>
</svg>
