<svg width="24" height="24" viewBox="0 0 24 24" fill="none" xmlns="http://www.w3.org/2000/svg">
<path d="M10.1538 21H7.69231C5.6531 21 4 19.405 4 17.4375V5.5625C4 3.59499 5.6531 2 7.69231 2H16.3077C18.3469 2 20 3.59499 20 5.5625V8.53125M15.6923 6.75H7.69231M12 10.3125H7.69231M10.1538 13.875H7.69231M13.8462 14.1719L15.2718 13.4841C16.3113 12.9826 17.5348 12.9826 18.5743 13.4841L20 14.1719C20 14.1719 20 16.3391 20 17.482C20 18.625 18.905 19.3965 16.9231 20.6042C14.9412 19.3965 13.8462 18.3776 13.8462 17.482V14.1719Z" stroke="white" stroke-width="1.5" stroke-linecap="round" stroke-linejoin="round"/>
</svg>
