<svg width="36" height="36" viewBox="0 0 36 36" fill="none" xmlns="http://www.w3.org/2000/svg">
<circle cx="18" cy="18" r="18" fill="#6B7588"/>
<path d="M14.6621 26C12.6547 26.0018 10.6891 25.451 9 24.4134C9.29258 24.4458 9.5869 24.4619 9.88145 24.4615C11.5446 24.464 13.1603 23.9317 14.4689 22.9499C13.6981 22.9358 12.9511 22.6917 12.3323 22.2516C11.7136 21.8116 11.2541 21.1976 11.0181 20.4955C11.2468 20.5378 11.4793 20.5592 11.7122 20.5593C12.0412 20.5594 12.3687 20.5176 12.6862 20.435C11.85 20.2735 11.0981 19.8402 10.5578 19.2088C10.0176 18.5773 9.72239 17.7866 9.72225 16.9706C9.72225 16.9549 9.72225 16.9404 9.72225 16.9258C10.2349 17.1988 10.8085 17.3505 11.395 17.3681C10.6129 16.8684 10.0595 16.1022 9.8474 15.2257C9.63534 14.3492 9.78064 13.4283 10.2537 12.6508C11.1804 13.7424 12.3366 14.6354 13.6474 15.272C14.9582 15.9086 16.3943 16.2744 17.8625 16.3458C17.6755 15.5872 17.756 14.7907 18.0913 14.0803C18.4266 13.3699 18.998 12.7854 19.7165 12.4178C20.4351 12.0502 21.2605 11.9201 22.0643 12.0477C22.8682 12.1753 23.6054 12.5534 24.1613 13.1233C24.9869 12.9663 25.7785 12.6763 26.5025 12.2656C26.2267 13.0838 25.6498 13.7785 24.8789 14.2206C25.6111 14.1359 26.326 13.9472 27 13.6607C26.5039 14.3705 25.8796 14.99 25.1563 15.4904C25.1645 15.6415 25.168 15.7938 25.168 15.9472C25.168 20.6153 21.4515 26 14.6574 26" fill="white"/>
</svg>
