<svg width="36" height="36" viewBox="0 0 36 36" fill="none" xmlns="http://www.w3.org/2000/svg">
<circle cx="18" cy="18" r="18" fill="#6B7588"/>
<path d="M26.8207 14.5893C26.8207 14.5893 26.6449 13.4129 26.1035 12.8964C25.418 12.2166 24.6516 12.2133 24.3 12.1733C21.7828 12 18.0035 12 18.0035 12H17.9965C17.9965 12 14.2172 12 11.7 12.1733C11.3484 12.2133 10.582 12.2166 9.89648 12.8964C9.35508 13.4129 9.18281 14.5893 9.18281 14.5893C9.18281 14.5893 9 15.9722 9 17.3518V18.6448C9 20.0244 9.1793 21.4074 9.1793 21.4074C9.1793 21.4074 9.35508 22.5837 9.89297 23.1003C10.5785 23.7801 11.4785 23.7567 11.8793 23.83C13.3207 23.96 18 24 18 24C18 24 21.7828 23.9933 24.3 23.8234C24.6516 23.7834 25.418 23.7801 26.1035 23.1003C26.6449 22.5837 26.8207 21.4074 26.8207 21.4074C26.8207 21.4074 27 20.0278 27 18.6448V17.3518C27 15.9722 26.8207 14.5893 26.8207 14.5893ZM16.1402 20.2144V15.419L21.0023 17.825L16.1402 20.2144Z" fill="white"/>
</svg>
