<svg width="24" height="24" viewBox="0 0 24 24" fill="#F2F2F2" xmlns="http://www.w3.org/2000/svg">
<path d="M7 20C5.34315 20 4 18.6569 4 17V6.99998C4 5.34314 5.34315 4 7 4H17C18.6569 4 20 5.34314 20 6.99998L20 17C20 18.6569 18.6569 20 17 20H7Z" fill="#00256C"/>
<path d="M15 9.99997L10.5253 13.9999L9 12.6365M20 6.99998L20 17C20 18.6569 18.6569 20 17 20H7C5.34315 20 4 18.6569 4 17V6.99998C4 5.34314 5.34315 4 7 4H17C18.6569 4 20 5.34314 20 6.99998Z" stroke="#F2F2F2" stroke-width="2" stroke-linecap="round" stroke-linejoin="round"/>
<path d="M15 10L10.5253 14L9 12.6365" stroke="white" stroke-width="2" stroke-linecap="round" stroke-linejoin="round"/>
</svg>
